<svg width="30" height="17" viewBox="0 0 30 17" xmlns="http://www.w3.org/2000/svg"><defs><linearGradient x1="0%" y1="-18.595%" x2="79.609%" y2="105.698%" id="a"><stop stop-color="#EBDDAE" offset="0%"/><stop stop-color="#D8B463" offset="30.229%"/><stop stop-color="#BE8142" offset="100%"/></linearGradient></defs><g fill="none" fill-rule="evenodd"><rect fill="url(#a)" width="30" height="17" rx="2.143"/><path d="M14.503 12.725h1.956v-8.51h-1.956v8.51zm9.23-5.508c0 .365-.136.671-.407.918-.272.248-.653.371-1.144.371h-1.55V5.905h1.512c.491 0 .879.109 1.162.328.284.219.426.539.426.96v.024zm1.746-1.258c.157.36.235.76.235 1.198v.024c0 .494-.093.928-.28 1.301a2.687 2.687 0 0 1-.768.936c-.326.251-.707.44-1.143.566a5.06 5.06 0 0 1-1.405.188h-1.486v2.553h-1.957v-8.51h3.634c.534 0 1.01.07 1.43.212.419.142.775.343 1.067.602.292.26.516.57.673.93zM11.096 4.214h2.11l-3.597 8.572H7.882L4.286 4.214h2.16L8.77 10.21l2.325-5.995z" fill="#FFEDC5"/></g></svg>